<?xml version="1.0" standalone="no"?>
<!DOCTYPE svg PUBLIC "-//W3C//DTD SVG 20010904//EN"
 "http://www.w3.org/TR/2001/REC-SVG-20010904/DTD/svg10.dtd">
<svg version="1.0" xmlns="http://www.w3.org/2000/svg"
 width="23.000000pt" height="20.000000pt" viewBox="0 0 23.000000 20.000000"
 preserveAspectRatio="xMidYMid meet">

<g transform="translate(0.000000,20.000000) scale(0.100000,-0.100000)"
fill="#000000" stroke="none">
<path d="M20 180 c-32 -32 -24 -57 37 -121 l57 -60 58 58 c63 62 71 90 38 123
-23 23 -39 25 -75 8 -19 -9 -28 -9 -37 0 -18 18 -56 14 -78 -8z m77 -15 c18
-13 22 -13 33 0 16 20 54 19 70 -1 20 -23 2 -61 -46 -100 l-41 -34 -47 43
c-46 43 -57 72 -34 95 16 16 39 15 65 -3z"/>
</g>
</svg>
